<svg xmlns="http://www.w3.org/2000/svg" viewBox="0 0 100 100">
  <!-- Fondo circular -->
  <circle cx="50" cy="50" r="48" fill="#FF69B4" stroke="#FF1493" stroke-width="2"/>
  
  <!-- Pelo azul característico de Miku -->
  <path d="M20 30 Q15 20 25 15 Q35 10 50 12 Q65 10 75 15 Q85 20 80 30 Q75 40 70 35 Q65 30 60 32 Q55 30 50 32 Q45 30 40 32 Q35 30 30 35 Q25 40 20 30 Z" fill="#00BFFF"/>
  <path d="M15 35 Q10 25 20 20 Q30 15 45 17 Q60 15 70 20 Q80 25 75 35 Q70 45 65 40 Q60 35 55 37 Q50 35 45 37 Q40 35 35 40 Q30 45 25 40 Q20 35 15 35 Z" fill="#00BFFF"/>
  
  <!-- Mechas laterales -->
  <path d="M10 40 Q5 30 15 25 Q25 20 40 22 Q55 20 65 25 Q75 30 70 40 Q65 50 60 45 Q55 40 50 42 Q45 40 40 42 Q35 40 30 45 Q25 50 20 45 Q15 40 10 40 Z" fill="#00BFFF"/>
  <path d="M90 40 Q95 30 85 25 Q75 20 60 22 Q45 20 35 25 Q25 30 30 40 Q35 50 40 45 Q45 40 50 42 Q55 40 60 42 Q65 40 70 45 Q75 50 80 45 Q85 40 90 40 Z" fill="#00BFFF"/>
  
  <!-- Mechas largas -->
  <path d="M25 45 Q20 35 30 30 Q40 25 55 27 Q70 25 80 30 Q90 35 85 45 Q80 55 75 50 Q70 45 65 47 Q60 45 55 47 Q50 45 45 47 Q40 45 35 50 Q30 55 25 50 Q20 45 25 45 Z" fill="#00BFFF"/>
  <path d="M75 45 Q80 35 70 30 Q60 25 45 27 Q30 25 20 30 Q10 35 15 45 Q20 55 25 50 Q30 45 35 47 Q40 45 45 47 Q50 45 55 47 Q60 45 65 50 Q70 55 75 50 Q80 45 75 45 Z" fill="#00BFFF"/>
  
  <!-- Cara -->
  <circle cx="50" cy="55" r="20" fill="#FFE4E1"/>
  
  <!-- Ojos -->
  <ellipse cx="42" cy="50" rx="4" ry="6" fill="#00BFFF"/>
  <ellipse cx="58" cy="50" rx="4" ry="6" fill="#00BFFF"/>
  <circle cx="42" cy="48" r="2" fill="#000"/>
  <circle cx="58" cy="48" r="2" fill="#000"/>
  <circle cx="43" cy="47" r="1" fill="#FFF"/>
  <circle cx="59" cy="47" r="1" fill="#FFF"/>
  
  <!-- Boca -->
  <path d="M45 60 Q50 65 55 60" fill="none" stroke="#FF69B4" stroke-width="2" stroke-linecap="round"/>
  
  <!-- Mejillas rosadas -->
  <circle cx="35" cy="58" r="3" fill="#FFB6C1" opacity="0.6"/>
  <circle cx="65" cy="58" r="3" fill="#FFB6C1" opacity="0.6"/>
  
  <!-- Detalles del pelo -->
  <path d="M30 25 Q25 20 35 15" fill="none" stroke="#FF69B4" stroke-width="1"/>
  <path d="M70 25 Q75 20 65 15" fill="none" stroke="#FF69B4" stroke-width="1"/>
</svg>
